<svg width="2000" height="2000" viewBox="0 0 2000 2000" fill="none" xmlns="http://www.w3.org/2000/svg">
<g clip-path="url(#clip0_1012_6)">
<rect width="2000" height="2000" rx="1000" fill="#FF5512"/>
<path d="M1494.84 1051.08C1494.79 1051.07 1494.74 1051.05 1494.7 1051.03C1491.72 1049.36 1493.05 1045.2 1496.55 1045.26C1589.24 1052.1 1633.94 953.113 1645.98 906.632C1692.45 726.127 1505.88 655.165 1445.82 637.261C1435.76 634.23 1430.39 623.811 1432.95 613.793L1469.57 468.233C1472.4 457.672 1466.25 447.67 1455.65 444.847L1415.6 434.604C1405 431.781 1393.91 437.519 1391.15 448.096L1354.96 593.559C1352.25 604.152 1340.95 609.364 1330.36 606.812L1235.48 583.351C1224.87 580.592 1219.4 571.1 1221.95 560.603L1258.55 414.836C1261.32 404.258 1254.91 393.65 1244.31 390.827L1204.31 380.664C1193.71 377.841 1183.06 384.296 1180.22 394.858L1143.2 539.3C1140.37 549.862 1129.17 557.133 1118.64 554.597L1071.29 542.484L938.33 509.607C927.735 506.784 916.705 510.909 913.938 521.487L902.668 568.972C899.9 579.549 906.455 589.583 917.049 592.406L1023.07 619.503C1033.67 622.326 1039.87 632.951 1037.31 643.512L888.6 1237.68C885.768 1248.24 871.344 1253.43 860.734 1250.94L768.784 1227.46C759.712 1225.08 750.172 1229.51 746.055 1238.12L722.742 1287.51C717.461 1298.62 725.356 1314.48 737.2 1317.48L911.385 1360.82C921.98 1363.64 927.316 1373.1 924.772 1383.6L885.782 1539.5C882.95 1550.06 889.426 1560.68 900.021 1563.51L940.074 1573.75C950.668 1576.57 963.633 1570.69 966.401 1560.11L1004.81 1404.07C1007.65 1393.51 1017.42 1386.77 1028.02 1389.32L1115.91 1411.32C1126.5 1414.15 1132.93 1425.23 1130.39 1435.73L1091.51 1592C1088.68 1602.56 1094.23 1613.09 1104.77 1615.83L1144.83 1626.07C1155.42 1628.9 1166.36 1621.29 1169.2 1610.73L1207.45 1457.5C1210.2 1446.72 1222.42 1439.76 1233.03 1442.79C1309.16 1464.2 1512.95 1516.82 1600.18 1327.87C1677.14 1161.28 1549.41 1077.7 1494.95 1051.12C1494.91 1051.1 1494.87 1051.09 1494.84 1051.08V1051.08ZM1190.48 691.628C1190.46 691.624 1190.45 691.602 1190.46 691.587C1196.82 682.728 1206.49 676.387 1216.56 677.996C1527.63 728.589 1466.54 881.667 1466.54 881.667C1426.08 1038.83 1208.75 965.958 1147.7 941.908V941.908C1129.27 934.604 1134.78 908.024 1139.72 888.826L1190.5 691.661C1190.5 691.647 1190.49 691.632 1190.48 691.628V691.628ZM1425.43 1246.2C1425.45 1246.2 1425.46 1246.22 1425.45 1246.24C1384.28 1406.1 1122.11 1325.68 1052.79 1301.48C1043.21 1298.16 1039.75 1291.27 1042.39 1281.48L1103.11 1033.87C1105.69 1024.06 1115.37 1017.7 1125.38 1019.29C1493.28 1077.56 1425.68 1245.48 1425.4 1246.19C1425.39 1246.21 1425.41 1246.19 1425.43 1246.2V1246.2Z" fill="white"/>
<path d="M850.961 1017.38C850.943 1017.38 850.933 1017.36 850.937 1017.34L856.701 994.175C875.845 917.226 840.362 857.706 764.008 838.826L532.254 781.522C510.521 776.149 503.451 765.174 508.508 744.85L513.819 723.504C517.778 707.59 538.234 698.129 552.146 701.569L853.497 776.082C879.759 782.575 906.317 766.573 912.849 740.321V740.321C919.393 714.015 903.351 687.39 877.036 680.883L575.822 606.405C502.16 588.191 440.186 626.124 421.63 700.709L416.319 722.055C396.491 801.753 429.998 858.546 508.275 877.901L740.094 935.221C762.532 940.769 769.585 951.264 764.576 971.396L758.804 994.596C754.845 1010.51 734.068 1019.89 719.9 1016.39L418.355 941.828C391.917 935.291 365.18 951.4 358.605 977.829V977.829C352.016 1004.31 368.166 1031.11 394.658 1037.67L696.065 1112.19C770.036 1130.48 832.308 1092.43 850.985 1017.42C850.989 1017.41 850.979 1017.39 850.961 1017.38V1017.38Z" fill="white"/>
</g>
<defs>
<clipPath id="clip0_1012_6">
<rect width="2000" height="2000" fill="white"/>
</clipPath>
</defs>
</svg>
